<svg xmlns="http://www.w3.org/2000/svg" xmlns:xlink="http://www.w3.org/1999/xlink">
    <symbol id="show-preview" viewBox="0 0 24 24" xmlns="http://www.w3.org/2000/svg"><g class="anc-icon-wrapper" fill="#111"><path data-color="color-2" d="M24 0H13l4.793 4.793-6.5 6.5 1.414 1.414 6.5-6.5L24 11z"/><path d="M24 24H1a1 1 0 0 1-1-1V0h2v22h22v2z"/></g><style>#ashow-preview{cursor:pointer}.anc-icon-wrapper:hover{fill:#70cbe0}</style></symbol>
    <symbol id="zoom-to-feature" viewBox="0 0 24 24" xmlns="http://www.w3.org/2000/svg"><g class="bnc-icon-wrapper" fill="#111"><path d="M17 16V8a1 1 0 0 0-1-1H8a1 1 0 0 0-1 1v8a1 1 0 0 0 1 1h8a1 1 0 0 0 1-1z"/><path data-color="color-2" d="M2 8H0V1a1 1 0 0 1 1-1h7v2H2v6zM16 2V0h7a1 1 0 0 1 1 1v7h-2V2h-6zM22 16h2v7a1 1 0 0 1-1 1h-7v-2h6v-6zM8 22v2H1a1 1 0 0 1-1-1v-7h2v6h6z"/></g><style>#bzoom-to-feature{cursor:pointer}.bnc-icon-wrapper:hover{fill:#70cbe0}</style></symbol>
</svg>
